<?xml version="1.0" encoding="UTF-8" standalone="no"?>
<!-- Created with Inkscape (http://www.inkscape.org/) -->

<svg
   xmlns:dc="http://purl.org/dc/elements/1.1/"
   xmlns:cc="http://creativecommons.org/ns#"
   xmlns:rdf="http://www.w3.org/1999/02/22-rdf-syntax-ns#"
   xmlns:svg="http://www.w3.org/2000/svg"
   xmlns="http://www.w3.org/2000/svg"
   xmlns:sodipodi="http://sodipodi.sourceforge.net/DTD/sodipodi-0.dtd"
   xmlns:inkscape="http://www.inkscape.org/namespaces/inkscape"
   width="991.13983"
   height="770.17773"
   viewBox="0 0 262.23907 203.7762"
   version="1.1"
   id="svg8"
   sodipodi:docname="teacher.svg"
   inkscape:version="0.92.3 (2405546, 2018-03-11)">
  <defs
     id="defs2" />
  <sodipodi:namedview
     id="base"
     pagecolor="#ffffff"
     bordercolor="#666666"
     borderopacity="1.0"
     inkscape:pageopacity="0.0"
     inkscape:pageshadow="2"
     inkscape:zoom="0.49497475"
     inkscape:cx="282.16804"
     inkscape:cy="380.07303"
     inkscape:document-units="mm"
     inkscape:current-layer="layer1"
     showgrid="false"
     units="px"
     fit-margin-top="0"
     fit-margin-left="0"
     fit-margin-right="0"
     fit-margin-bottom="0"
     inkscape:window-width="1366"
     inkscape:window-height="661"
     inkscape:window-x="0"
     inkscape:window-y="27"
     inkscape:window-maximized="1" />
  <metadata
     id="metadata5">
    <rdf:RDF>
      <cc:Work
         rdf:about="">
        <dc:format>image/svg+xml</dc:format>
        <dc:type
           rdf:resource="http://purl.org/dc/dcmitype/StillImage" />
        <dc:title />
      </cc:Work>
    </rdf:RDF>
  </metadata>
  <g
     inkscape:label="Layer 1"
     inkscape:groupmode="layer"
     id="layer1"
     transform="translate(20.750494,-34.094051)">
    <circle
       style="fill:#81ffad;stroke-width:0.26458332;fill-opacity:1"
       cx="4.280057"
       cy="62.052017"
       r="8.6220827"
       id="circle819" />
    <circle
       style="fill:#81ffad;stroke-width:0.26458332;fill-opacity:1"
       cx="216.52139"
       cy="198.20026"
       r="8.6220827"
       id="circle823" />
    <rect
       style="fill:#3f3d56;stroke-width:0.26458332"
       x="9.8088818"
       y="74.490028"
       width="208.49167"
       height="94.720833"
       id="rect825" />
    <rect
       style="fill:#ffffff;stroke-width:0.26458332"
       x="13.248466"
       y="77.929611"
       width="201.6125"
       height="85.989586"
       id="rect827" />
    <rect
       style="fill:#3f3d56;stroke-width:0.26458332"
       x="174.77658"
       y="159.81816"
       width="19.579166"
       height="6.614583"
       id="rect829" />
    <rect
       style="fill:#1e88e5;stroke-width:0.26458332"
       x="159.43076"
       y="164.84525"
       width="14.287499"
       height="1.8520833"
       id="rect831" />
    <circle
       style="fill:none;stroke:#3f3d56;stroke-width:0.52916664;stroke-miterlimit:10"
       cx="193.44083"
       cy="54.077961"
       r="3.9040751"
       stroke-miterlimit="10"
       id="circle869" />
    <ellipse
       style="fill:#f2f2f2;stroke-width:0.26458332"
       cx="19.466173"
       cy="230.4619"
       rx="40.216667"
       ry="7.4083333"
       id="ellipse871" />
    <polygon
       style="fill:#1e88e5"
       points="231.027,510.834 258.143,497.153 256.389,493.658 229.272,507.339 "
       id="polygon873"
       transform="matrix(0.26458333,0,0,0.26458333,-20.750493,34.094051)" />
    <path
       style="fill:#8d6e63;stroke-width:0.26458332"
       inkscape:connector-curvature="0"
       d="m 45.919267,157.97496 -0.322323,1.93395 c 0,0 0.483486,13.37646 -3.062084,9.18625 -3.54557,-4.19022 -1.128135,-9.8309 -1.128135,-9.8309 l 0.966975,-1.61162 z"
       id="path875" />
    <path
       style="fill:#795548;stroke-width:0.26458332"
       inkscape:connector-curvature="0"
       d="m 25.290504,96.088665 c 0,0 -0.644649,6.768815 -0.966975,7.091135 -0.322326,0.32233 4.834869,6.44649 4.834869,6.44649 l 4.51254,-4.1902 c 0,0 -0.322324,-6.12417 0.644649,-7.413469 0.966973,-1.289298 -9.025083,-1.933956 -9.025083,-1.933956 z"
       id="path877" />
    <path
       style="opacity:0.1;stroke-width:0.26458332"
       inkscape:connector-curvature="0"
       d="m 25.334147,96.088665 c 0,0 -0.644649,6.768815 -0.966975,7.091135 -0.322326,0.32233 4.834869,6.44649 4.834869,6.44649 l 4.51254,-4.1902 c 0,0 -0.322324,-6.12417 0.644649,-7.413469 0.966973,-1.289298 -9.025083,-1.933956 -9.025083,-1.933956 z"
       id="path879" />
    <polygon
       style="fill:#3f3d56"
       points="111.883,697.239 128.939,700.894 128.939,722.822 120.411,724.041 108.229,720.386 "
       id="polygon881"
       transform="matrix(0.26458333,0,0,0.26458333,-20.750493,34.094051)" />
    <path
       style="fill:#2f2e41;stroke-width:0.26458332"
       inkscape:connector-curvature="0"
       d="m 10.463577,222.43985 c 0,0 -0.9669723,-2.57859 -2.5785943,-2.25627 -1.6116221,0.32233 -1.9339481,2.25627 -1.9339481,2.25627 0,0 -1.289296,4.83487 -3.223244,6.44649 -1.9339481,1.61162 -3.8678935,5.80184 0,6.44649 3.8678934,0.64465 7.0911375,-0.96697 7.0911375,-1.2893 0,-0.32232 0.9669749,-2.25627 2.5785979,-2.57859 1.611621,-0.32233 2.90092,-0.64465 2.90092,-1.93395 0,-1.2893 -0.966975,-2.57859 -0.966975,-2.57859 0,0 -0.322324,-6.11402 -0.966973,-5.31328 a 6.4119706,6.4119706 0 0 0 -0.966972,2.09003 z"
       id="path883" />
    <polygon
       style="fill:#3f3d56"
       points="195.941,688.712 181.323,689.93 176.45,708.203 188.632,710.64 194.723,704.549 "
       id="polygon885"
       transform="matrix(0.26458333,0,0,0.26458333,-20.750493,34.094051)" />
    <path
       style="fill:#2f2e41;stroke-width:0.26458332"
       inkscape:connector-curvature="0"
       d="m 26.902126,220.82823 c 0,0 1.289296,-0.96697 1.933946,-0.96697 h 0.966972 c 0,0 0,-2.25627 1.611625,-2.25627 1.611625,0 1.289296,1.61162 1.289296,1.61162 0,0 3.54557,5.47952 4.512543,6.44649 0.966973,0.96697 6.124165,3.86789 1.933948,5.15719 -4.190217,1.2893 -7.09114,1.2893 -9.025086,-0.96697 0,0 -1.933948,-0.96698 -3.223244,-0.96698 -1.289296,0 -2.90092,-0.64465 -2.90092,-1.61162 0,-0.96697 0.966972,-2.90092 0.966972,-2.90092 0,0 0.64465,-5.80184 0.966973,-5.15719 0.322323,0.64464 0.966975,1.61162 0.966975,1.61162 z"
       id="path887" />
    <path
       style="fill:#2f2e41;stroke-width:0.26458332"
       inkscape:connector-curvature="0"
       d="m 13.042175,142.50339 v 10.63671 c 0,0 -3.5455703,20.62876 -3.5455703,27.39757 0,6.76881 -5.4795207,39.00126 -2.9009207,39.64591 2.5786,0.64465 8.702762,1.61163 9.025085,0.64465 0.322324,-0.96697 2.578595,-31.58781 2.900921,-31.91012 0.322326,-0.32231 7.091138,-25.78596 7.091138,-25.78596 l 1.289298,0.32233 0.644647,29.0092 c 0,0 -3.223244,26.10829 -1.611622,26.10829 1.611622,0 8.380436,-0.32233 8.380436,-2.25627 0,-1.93395 3.54557,-37.71196 3.54557,-37.71196 0,0 4.190206,-28.36456 2.578595,-31.26548 -1.611611,-2.90092 -1.611622,-4.51254 -1.611622,-4.51254 z"
       id="path889" />
    <circle
       style="fill:#8d6e63;stroke-width:0.31027043"
       cx="30.452478"
       cy="93.583015"
       r="7.5596399"
       id="circle891" />
    <path
       style="fill:#d0cde1;stroke-width:0.26458332"
       inkscape:connector-curvature="0"
       d="m 29.158398,105.7584 c 0,0 -4.029057,-3.38441 -4.351383,-4.67371 0,0 -2.095108,2.09511 -2.095108,2.41744 0,0.32232 -9.025086,1.2893 -11.281354,3.86789 -2.256269,2.5786 -4.1902197,8.05811 -4.1902197,8.05811 l 5.4795207,10.31439 c 0,0 0.322326,5.80184 0.322326,6.44648 0,0.64465 -1.611622,10.95905 -0.966975,11.28136 0.644646,0.32232 7.09114,3.54557 12.570655,2.90092 5.479516,-0.64465 10.959042,-1.61162 12.570653,-1.61162 1.611612,0 2.900921,0.64465 2.900921,0 0,-0.64465 -0.966973,-1.93395 -0.966973,-2.5786 0,-0.64465 -0.322326,-2.25627 -0.322326,-3.22324 0,-0.96697 -0.644649,-2.5786 -0.644649,-3.8679 0,-1.28929 7.09114,-18.69481 7.09114,-18.69481 0,0 -0.322326,-5.47952 -5.479521,-8.05812 -5.157195,-2.57859 -5.801839,-3.54556 -5.801839,-3.54556 0,0 -0.100486,-1.93395 -0.372567,-1.93395 -0.272082,0 -1.239044,2.90092 -3.817652,3.22324 z"
       id="path893" />
    <polygon
       style="fill:#8d6e63"
       points="153.303,441.41 137.466,423.137 122.847,432.883 131.375,446.283 "
       id="polygon895"
       transform="matrix(0.26458333,0,0,0.26458333,-20.750493,34.094051)" />
    <path
       style="fill:#d0cde1;stroke-width:0.26458332"
       inkscape:connector-curvature="0"
       d="m 43.340673,113.81651 1.933948,2.5786 c 0,0 3.867893,18.69481 3.223244,25.46363 -0.64465,6.76881 -1.289299,11.926 -1.289299,11.926 0,0 1.289299,4.83487 0.322323,4.83487 -0.966975,0 -6.768811,0.32232 -6.768811,-0.64465 0,-0.96697 0.644652,-7.09114 0.644652,-7.09114 l -1.611627,-14.18227 -3.545568,-4.83487 z"
       id="path897" />
    <path
       style="fill:#d0cde1;stroke-width:0.26458332"
       inkscape:connector-curvature="0"
       d="m 8.207306,114.46116 -0.9669727,0.96697 c 0,0 -5.8018256,17.40552 -3.8678934,21.27342 1.9339322,3.8679 5.8018415,13.53763 7.0911371,13.2153 1.289297,-0.32232 5.801842,-3.22324 5.801842,-3.54557 0,-0.32232 -5.479521,-9.3474 -5.479521,-9.3474 0,0 -0.644649,-1.93395 -0.322326,-2.25628 0.322324,-0.32232 0.322326,0 0,-0.64465 -0.322326,-0.64464 -0.322323,0 0.322326,-0.64464 0.64465,-0.64465 0.64465,-0.64465 0.64465,-0.96698 0,-0.32232 1.933945,-8.38043 1.933945,-8.38043 z"
       id="path901" />
    <polygon
       style="fill:#2f2e41"
       points="158.785,446.892 129.548,452.983 128.329,446.892 155.131,438.365 "
       id="polygon903"
       transform="matrix(0.26458333,0,0,0.26458333,-20.750493,34.094051)" />
    <polygon
       style="opacity:0.1"
       points="158.785,446.892 129.548,452.983 128.329,446.892 155.131,438.365 "
       id="polygon905"
       transform="matrix(0.26458333,0,0,0.26458333,-20.750493,34.094051)" />
    <polygon
       style="opacity:0.1"
       points="188.023,276.339 164.876,262.939 185.586,279.994 "
       id="polygon907"
       transform="matrix(0.26458333,0,0,0.26458333,-20.750493,34.094051)" />
    <polygon
       style="opacity:0.1"
       points="192.896,279.994 206.296,267.812 191.678,276.339 "
       id="polygon909"
       transform="matrix(0.26458333,0,0,0.26458333,-20.750493,34.094051)" />
    <path
       style="fill:#2f2e41;fill-opacity:1;stroke:none;stroke-width:0.31027043px;stroke-linecap:butt;stroke-linejoin:miter;stroke-opacity:1"
       d="m 22.915186,93.863214 c -0.110818,-5.651357 0.22162,-7.175006 1.329729,-8.116897 1.108109,-0.941892 4.155408,-1.828381 6.981085,-1.717568 2.82568,0.110807 5.651356,1.385134 6.316222,2.271621 0.664863,0.886489 1.123144,3.729718 0.443243,8.144599 -0.221047,1.435353 -0.434144,-3.903899 -2.216218,-4.93108 -1.739595,-1.002699 -9.594098,-1.139023 -10.471628,-0.110807 -1.059146,1.24101 -2.382433,4.460138 -2.382433,4.460138 z"
       id="path103"
       inkscape:connector-curvature="0"
       sodipodi:nodetypes="csccsssc" />
  </g>
</svg>
